<!--

    uBlock Resurrected - a browser extension to block requests.
    Copyright (C) 2018-present Raymond Hill

    This program is free software: you can redistribute it and/or modify
    it under the terms of the GNU General Public License as published by
    the Free Software Foundation, either version 3 of the License, or
    (at your option) any later version.

    This program is distributed in the hope that it will be useful,
    but WITHOUT ANY WARRANTY; without even the implied warranty of
    MERCHANTABILITY or FITNESS FOR A PARTICULAR PURPOSE.  See the
    GNU General Public License for more details.

    You should have received a copy of the GNU General Public License
    along with this program.  If not, see {http://www.gnu.org/licenses/}.

    Home: https://github.com/gorhill/uBlock

-->

<svg xmlns="http://www.w3.org/2000/svg" xmlns:xlink="http://www.w3.org/1999/xlink" style="display: none;">
    <defs>
    <symbol id="ubo-solid" viewBox="0 0 128 128"><path d="M 64,0 C 40,16 32,16 8,16 c 0,80 0,80 56,112 56,-32 56,-32 56,-112 -24,0 -32,0 -56,-16 z m -32,40 8,0 0,24 c 0,7 1,8 8,8 7,0 8,-1 8,-8 l 0,-4 0,-20 8,0 0,4.054688 C 67.350916,41.522675 71.50202,40 76,40 86.998316,40 96,49.001684 96,60 96,70.998316 86.998316,80 76,80 70.442478,80 65.399719,77.696984 61.765625,74.003906 59.318213,78.076852 54.812381,80 48,80 37,80 32,75 32,64 l 0,-24 z m 44,8 c -6.674796,0 -12,5.325204 -12,12 0,6.674796 5.325204,12 12,12 6.674796,0 12,-5.325204 12,-12 0,-6.674796 -5.325204,-12 -12,-12 z"/></symbol>
    <symbol id="ubo-resurrected" viewBox="0 0 256 256"><path d="M0 0 C3.30130618 1.27743206 6.41417815 2.88736671 9.5625 4.5 C34.50874173 16.78998118 60.77302438 24.34193988 87.86035156 30.30273438 C93.24844162 31.49934287 98.62384188 32.75104861 104 34 C105.73879908 47.76408272 106.36589965 61.31924531 106.3125 75.1875 C106.31067719 76.17412628 106.30885437 77.16075256 106.30697632 78.17727661 C106.26099332 92.98155392 105.81794024 107.42368864 103 122 C102.74259033 123.38203613 102.74259033 123.38203613 102.47998047 124.79199219 C96.33284651 156.92848338 82.42981386 186.09613579 60 210 C59.4323291 210.60618164 58.8646582 211.21236328 58.27978516 211.83691406 C50.14298572 220.43558774 41.50648079 227.96214194 32 235 C31.44908691 235.41701172 30.89817383 235.83402344 30.33056641 236.26367188 C23.16357501 241.68596929 15.70716193 246.56571789 8 251.1875 C6.79790894 251.9290332 6.79790894 251.9290332 5.5715332 252.68554688 C2.194098 254.66036439 -0.119607 255.97986395 -4.07421875 256.0703125 C-7.92990763 254.65982017 -11.30989376 252.81678221 -14.8125 250.6875 C-15.54807129 250.24672119 -16.28364258 249.80594238 -17.04150391 249.35180664 C-25.31980079 244.31395208 -33.22079526 238.77220309 -41 233 C-41.9384375 232.3090625 -42.876875 231.618125 -43.84375 230.90625 C-83.01537254 200.43943247 -104.6332152 157.50923509 -111 109 C-111.08886978 108.34013596 -111.17773956 107.68027191 -111.26930237 107.00041199 C-112.02408389 100.90523334 -112.16111895 94.88323635 -112.16796875 88.74609375 C-112.17129715 87.68697281 -112.17462555 86.62785187 -112.17805481 85.53663635 C-112.18309413 83.30364411 -112.18546407 81.07064441 -112.18530273 78.83764648 C-112.18747789 75.47171158 -112.20563489 72.10611097 -112.22460938 68.74023438 C-112.25424803 56.99388023 -111.91919004 45.60539111 -110 34 C-103.45265373 32.47219557 -96.90227819 30.97097072 -90.328125 29.5625 C-61.70679009 23.31887311 -33.89158466 14.57756749 -7.88574219 0.88696289 C-4.99808819 -0.47125138 -3.18754862 -0.38682037 0 0 Z " fill="#91191D" transform="translate(131,0)"/><path d="M0 0 C3.30130618 1.27743206 6.41417815 2.88736671 9.5625 4.5 C34.50874173 16.78998118 60.77302438 24.34193988 87.86035156 30.30273438 C93.24844162 31.49934287 98.62384188 32.75104861 104 34 C105.73879908 47.76408272 106.36589965 61.31924531 106.3125 75.1875 C106.31067719 76.17412628 106.30885437 77.16075256 106.30697632 78.17727661 C106.26099332 92.98155392 105.81794024 107.42368864 103 122 C102.74259033 123.38203613 102.74259033 123.38203613 102.47998047 124.79199219 C96.33284651 156.92848338 82.42981386 186.09613579 60 210 C59.4323291 210.60618164 58.8646582 211.21236328 58.27978516 211.83691406 C50.14298572 220.43558774 41.50648079 227.96214194 32 235 C31.44908691 235.41701172 30.89817383 235.83402344 30.33056641 236.26367188 C23.16357501 241.68596929 15.70716193 246.56571789 8 251.1875 C6.79790894 251.9290332 6.79790894 251.9290332 5.5715332 252.68554688 C2.194098 254.66036439 -0.119607 255.97986395 -4.07421875 256.0703125 C-7.92990763 254.65982017 -11.30989376 252.81678221 -14.8125 250.6875 C-15.54807129 250.24672119 -16.28364258 249.80594238 -17.04150391 249.35180664 C-25.31980079 244.31395208 -33.22079526 238.77220309 -41 233 C-41.9384375 232.3090625 -42.876875 231.618125 -43.84375 230.90625 C-83.01537254 200.43943247 -104.6332152 157.50923509 -111 109 C-111.08886978 108.34013596 -111.17773956 107.68027191 -111.26930237 107.00041199 C-112.02408389 100.90523334 -112.16111895 94.88323635 -112.16796875 88.74609375 C-112.17129715 87.68697281 -112.17462555 86.62785187 -112.17805481 85.53663635 C-112.18309413 83.30364411 -112.18546407 81.07064441 -112.18530273 78.83764648 C-112.18747789 75.47171158 -112.20563489 72.10611097 -112.22460938 68.74023438 C-112.25424803 56.99388023 -111.91919004 45.60539111 -110 34 C-103.45265373 32.47219557 -96.90227819 30.97097072 -90.328125 29.5625 C-61.70679009 23.31887311 -33.89158466 14.57756749 -7.88574219 0.88696289 C-4.99808819 -0.47125138 -3.18754862 -0.38682037 0 0 Z M-8.953125 15.23046875 C-9.95835205 15.70154053 -10.9635791 16.1726123 -11.99926758 16.65795898 C-13.60838013 17.41508179 -13.60838013 17.41508179 -15.25 18.1875 C-24.06379244 22.28401472 -32.77966465 25.92655488 -42 29 C-43.69142215 29.6366765 -45.38282647 30.2734004 -47.07421875 30.91015625 C-53.28642163 33.17711886 -59.59444658 34.87384375 -66 36.5 C-67.16958252 36.80043213 -68.33916504 37.10086426 -69.54418945 37.41040039 C-79.30801738 39.88892597 -89.11585421 42.06169614 -99 44 C-100.14042114 53.58006253 -100.20169862 63.11799389 -100.1875 72.75 C-100.18656342 73.56913879 -100.18562683 74.38827759 -100.18466187 75.23223877 C-100.06493482 123.63617105 -88.56797723 167.91206201 -55 204 C-53.67548828 205.44826172 -53.67548828 205.44826172 -52.32421875 206.92578125 C-40.52456678 219.2984057 -26.20984533 228.99119922 -11.71289062 237.92675781 C-10.22162876 238.86113454 -8.77060749 239.85913687 -7.328125 240.8671875 C-5.07837845 242.1796644 -5.07837845 242.1796644 -2.64453125 241.95703125 C0.966859 240.65010273 4.09552255 238.74853591 7.3125 236.6875 C8.01036621 236.2445459 8.70823242 235.8015918 9.42724609 235.34521484 C37.24902995 217.41478925 60.52678279 195.5118315 76 166 C76.79857422 164.4840625 76.79857422 164.4840625 77.61328125 162.9375 C85.30563256 147.3540286 89.16812542 130.05496464 92 113 C92.17789063 111.95537598 92.17789063 111.95537598 92.359375 110.88964844 C94.08626732 100.24561872 94.1781854 89.56961784 94.1875 78.8125 C94.18858765 78.14126099 94.18967529 77.47002197 94.1907959 76.77844238 C94.58946709 60.23328806 94.58946709 60.23328806 92 44 C90.97753174 43.77860352 89.95506348 43.55720703 88.90161133 43.32910156 C85.0442498 42.49229021 81.18854338 41.64805046 77.33325195 40.80175781 C75.67645596 40.43910803 74.01923944 40.07837315 72.36157227 39.71972656 C59.9136254 37.0246162 47.68360564 34.19271362 36 29 C33.83895996 28.31531405 31.67186552 27.64952987 29.5 27 C21.15670547 24.38281724 13.41743058 20.52559068 5.59375 16.65820312 C4.63855469 16.18705078 3.68335938 15.71589844 2.69921875 15.23046875 C1.84158936 14.80145264 0.98395996 14.37243652 0.1003418 13.93041992 C-3.60522109 12.28891113 -5.42757231 13.56081666 -8.953125 15.23046875 Z " fill="#F5F5F5" transform="translate(131,0)"/><path d="M0 0 C12.375 -0.061875 12.375 -0.061875 25 -0.125 C27.58972656 -0.14320801 30.17945313 -0.16141602 32.84765625 -0.18017578 C34.91926873 -0.18602155 36.99088352 -0.19111691 39.0625 -0.1953125 C40.12275391 -0.20554443 41.18300781 -0.21577637 42.27539062 -0.22631836 C51.06410702 -0.2283718 59.62575553 0.8000173 67 6 C73.69615198 13.05928386 74.42323953 18.94316654 74.34375 28.51171875 C73.71425573 34.89965493 70.65095278 38.69396214 66 42.875 C63.34019175 44.75903085 61.08486084 46.00195679 58 47 C59.28547021 50.85641062 60.65361977 51.19642224 64.125 53.1875 C74.16084227 59.43721056 79.84433511 68.00040114 84 79 C84.33 81.97 84.66 84.94 85 88 C77.08 88 69.16 88 61 88 C60.29875 86.185 59.5975 84.37 58.875 82.5 C54.47721895 72.02909274 48.6432931 65.93174489 38.9375 60.1875 C35.43015755 58.63298776 35.43015755 58.63298776 29 58 C29 51.4 29 44.8 29 38 C37.1875 37.6875 37.1875 37.6875 39.73901367 37.61206055 C44.25765631 37.39131145 47.30362281 36.85758391 51 34 C53.32106991 30.79471299 53.55405751 27.87840257 53 24 C50.44975635 20.89835231 48.82300753 19.27433584 45 18 C43.08234406 17.85060226 41.16053478 17.75189717 39.23828125 17.68359375 C37.56088867 17.62075195 37.56088867 17.62075195 35.84960938 17.55664062 C34.68236328 17.51732422 33.51511719 17.47800781 32.3125 17.4375 C31.13365234 17.39431641 29.95480469 17.35113281 28.74023438 17.30664062 C25.82694117 17.20048824 22.91356243 17.09843758 20 17 C20.01047363 18.21059082 20.02094727 19.42118164 20.03173828 20.66845703 C20.06803343 25.17477442 20.0909351 29.68107896 20.10986328 34.1875 C20.11989919 36.13511328 20.13353088 38.08271157 20.15087891 40.03027344 C20.17523328 42.83532417 20.18650737 45.64017505 20.1953125 48.4453125 C20.20563507 49.31116974 20.21595764 50.17702698 20.22659302 51.06912231 C20.22797338 58.56569915 18.79946787 63.84419965 13.70703125 69.45703125 C6.1045271 76.32885994 -5.29440069 75.21056717 -14.8125 75.25 C-16.04548828 75.270625 -17.27847656 75.29125 -18.54882812 75.3125 C-28.3194 75.35423229 -36.18509684 74.21640024 -44 68 C-50.93404634 60.58218299 -52.44597493 54.98581355 -52.29296875 45.1328125 C-52.28872391 44.09808807 -52.28447906 43.06336365 -52.28010559 41.99728394 C-52.26336996 38.70625319 -52.22572649 35.41584434 -52.1875 32.125 C-52.17244658 29.8880297 -52.15875933 27.65104977 -52.14648438 25.4140625 C-52.11348306 19.94247027 -52.06173541 14.47134043 -52 9 C-45.4 9 -38.8 9 -32 9 C-31.96261719 11.74570313 -31.92523438 14.49140625 -31.88671875 17.3203125 C-31.84045443 19.99129012 -31.78923866 22.66213033 -31.73754883 25.33300781 C-31.70437704 27.18350819 -31.67632113 29.03410786 -31.65356445 30.88476562 C-31.6198755 33.55121003 -31.5675534 36.2167509 -31.51171875 38.8828125 C-31.50532883 39.70492218 -31.4989389 40.52703186 -31.49235535 41.37405396 C-31.36821666 46.26804244 -30.83414544 49.8333049 -28 54 C-20.82768459 58.88648444 -20.82768459 58.88648444 -1 57 C-0.67 38.19 -0.34 19.38 0 0 Z " fill="#F8F8F8" transform="translate(112,75)"/><path d="M0 0 C1.33418404 0.64026434 2.66886345 1.27949697 4.00390625 1.91796875 C4.73432129 2.28196777 5.46473633 2.6459668 6.21728516 3.02099609 C16.41536486 8.09349503 26.78557633 11.86770626 37.64550781 15.25683594 C39.87486257 15.96050204 42.09018679 16.69639396 44.3046875 17.4453125 C55.0447209 21.02180116 65.71971194 23.96499058 76.8125 26.25 C78.08931641 26.518125 79.36613281 26.78625 80.68164062 27.0625 C83.78667433 27.71374302 86.89273864 28.35948635 90 29 C93.17813594 39.76766457 92.20696089 52.72012408 92.1875 63.8125 C92.18656342 64.51165527 92.18562683 65.21081055 92.18466187 65.93115234 C92.04132477 115.51590111 76.43184681 159.01533807 41.54052734 194.48242188 C37.62080958 198.34374765 33.40143075 201.70854305 29 205 C28.34370605 205.4935498 27.68741211 205.98709961 27.01123047 206.49560547 C19.10350106 212.41528867 11.07842712 218.15640637 2.6875 223.375 C2.08389648 223.76236328 1.48029297 224.14972656 0.85839844 224.54882812 C-1.65690965 226.0640052 -3.38422327 227.05333248 -6.359375 226.7956543 C-9.46686096 225.85932879 -11.69128394 224.49153916 -14.38671875 222.68359375 C-15.40830078 222.00103516 -16.42988281 221.31847656 -17.48242188 220.61523438 C-18.54009766 219.89658203 -19.59777344 219.17792969 -20.6875 218.4375 C-22.24500977 217.40012695 -22.24500977 217.40012695 -23.83398438 216.34179688 C-34.25519383 209.33116506 -43.81046512 201.55158369 -53 193 C-53.66644531 192.38769531 -54.33289063 191.77539062 -55.01953125 191.14453125 C-70.69762197 176.16892118 -82.11362971 157.05072447 -90 137 C-90.44859375 135.91074219 -90.8971875 134.82148438 -91.359375 133.69921875 C-100.81472216 109.33127159 -102.15797076 83.5763372 -102.1875 57.75 C-102.18867828 56.95068054 -102.18985657 56.15136108 -102.19107056 55.32781982 C-102.18959517 46.50204399 -102.04485431 37.77725717 -101 29 C-100.2565332 28.84966309 -99.51306641 28.69932617 -98.74707031 28.54443359 C-84.02273373 25.54284695 -69.52953231 22.31725697 -55.22119141 17.70703125 C-53.02308196 17.00734726 -50.81733022 16.34227846 -48.60546875 15.6875 C-39.91063132 13.09692863 -31.84039414 9.84942306 -23.68310547 5.86962891 C-21.02620762 4.5824517 -18.35756222 3.32210834 -15.6875 2.0625 C-14.82672852 1.63614258 -13.96595703 1.20978516 -13.07910156 0.77050781 C-7.98163242 -1.61626039 -5.26952093 -2.72609883 0 0 Z M-15.0625 7.75 C-20.50900616 10.36762075 -25.93210902 12.91594197 -31.58398438 15.06689453 C-33.93874064 15.97634062 -36.26830437 16.93540566 -38.6015625 17.8984375 C-43.96357417 20.04265093 -49.39337652 21.76823825 -54.9375 23.375 C-55.95078369 23.67100098 -56.96406738 23.96700195 -58.00805664 24.27197266 C-67.42796413 26.9580538 -76.94777462 29.10873354 -86.52905273 31.13427734 C-88.16789429 31.48159912 -88.16789429 31.48159912 -89.83984375 31.8359375 C-90.81300537 32.03751465 -91.78616699 32.2390918 -92.78881836 32.44677734 C-94.96003188 32.78858527 -94.96003188 32.78858527 -96 34 C-96.11447149 35.62676513 -96.1596144 37.25846515 -96.17700195 38.88916016 C-96.18983719 39.93600983 -96.20267242 40.9828595 -96.21589661 42.06143188 C-96.22328354 43.20904999 -96.23067047 44.35666809 -96.23828125 45.5390625 C-96.246353 46.72607758 -96.25442474 47.91309265 -96.26274109 49.13607788 C-96.27662284 51.66996794 -96.28732652 54.20387702 -96.29516602 56.73779297 C-96.31208805 60.5326195 -96.35589756 64.32650619 -96.40039062 68.12109375 C-96.69278035 113.7187289 -82.29868446 155.01260033 -50.7421875 188.26171875 C-46.44128914 192.55649047 -41.80943824 196.29436726 -37 200 C-36.01515625 200.78890625 -35.0303125 201.5778125 -34.015625 202.390625 C-27.87673466 207.27799997 -21.52189467 211.82509891 -15 216.1875 C-14.28183105 216.68169434 -13.56366211 217.17588867 -12.82373047 217.68505859 C-12.13939941 218.13316895 -11.45506836 218.5812793 -10.75 219.04296875 C-9.84507813 219.64661255 -9.84507813 219.64661255 -8.921875 220.26245117 C-6.23180555 221.29480633 -4.72846053 220.85461074 -2 220 C0.39063767 218.74570329 0.39063767 218.74570329 2.73046875 217.12109375 C3.61114014 216.53352295 4.49181152 215.94595215 5.39916992 215.34057617 C6.77939331 214.39855347 6.77939331 214.39855347 8.1875 213.4375 C9.60542847 212.47904175 9.60542847 212.47904175 11.05200195 211.5012207 C17.27710327 207.26052857 23.32399121 202.96125213 29 198 C29.79921875 197.3090625 30.5984375 196.618125 31.421875 195.90625 C33.98736017 193.64352395 36.50065292 191.33551793 39 189 C40.3303125 187.76830078 40.3303125 187.76830078 41.6875 186.51171875 C63.28172066 165.80703275 75.48417306 139.01908649 82.125 110.1875 C82.28371582 109.51356201 82.44243164 108.83962402 82.60595703 108.14526367 C85.41608946 95.42283973 86.31629 82.75668097 86.20581055 69.77319336 C86.18753541 67.5667757 86.18530233 65.36078264 86.18554688 63.15429688 C86.16002124 53.07501729 85.68782023 43.05452286 85 33 C84.25242432 32.86013672 83.50484863 32.72027344 82.73461914 32.57617188 C53.50272756 27.02646213 24.47816654 19.00158353 -1.92602539 4.92456055 C-6.83047921 2.73819602 -10.65176491 5.5886684 -15.0625 7.75 Z " fill="#0F0909" transform="translate(133,15)"/></symbol>
    </defs>
</svg>
